<?xml version="1.0" encoding="utf-8"?>
<!-- Generator: Adobe Illustrator 23.0.3, SVG Export Plug-In . SVG Version: 6.00 Build 0)  -->
<svg version="1.1" id="Layer_1" xmlns="http://www.w3.org/2000/svg" xmlns:xlink="http://www.w3.org/1999/xlink" x="0px" y="0px"
	 viewBox="0 0 48 48" style="enable-background:new 0 0 48 48;" xml:space="preserve">
<style type="text/css">
	.st0{fill:#3D3D3F;}
	.st1{fill:#FF5100;}
	.st2{fill:#FFFFFF;}
</style>
<g>
	<g>
		<path class="st2" d="M20.83,24.41c0,1.59-1.3,2.89-2.89,2.89h-5.28c-3.68,0-6.67-2.93-6.67-6.53c0-3.18,2.32-5.88,5.51-6.43
			l0.49-0.08l0.09-0.49c0.67-3.46,3.78-5.98,7.38-5.98c2.13,0,4.17,0.89,5.59,2.44l0.05,0.05c0.36,0.32,0.69,0.67,0.98,1.05
			l0.32,0.42l0.5-0.18c0.44-0.16,0.9-0.24,1.37-0.24c0.94,0,1.85,0.33,2.56,0.94l0.04,0.03l0.04,0.03c0.88,0.55,1.5,1.44,1.71,2.43
			l0.13,0.62l0.63-0.05c0.2-0.02,0.36-0.02,0.52-0.02c3.38,0,6.13,2.69,6.13,6c0,0.05,0,0.1,0,0.15l0.21,0.08l1.17,0.47l0.03,0.01
			c0.02-0.24,0.04-0.48,0.04-0.72c0-4.1-3.4-7.44-7.57-7.44c-0.01,0-0.03,0-0.04,0c-0.38-1.11-1.14-2.08-2.14-2.72
			c-0.97-0.81-2.19-1.25-3.46-1.25c-0.46,0-0.92,0.06-1.36,0.17c-0.25-0.3-0.53-0.57-0.82-0.83c-1.7-1.83-4.11-2.88-6.63-2.88
			c-4.13,0-7.71,2.78-8.69,6.67c-3.64,0.85-6.23,4.04-6.23,7.75c0,4.4,3.64,7.97,8.12,7.97h5.28c2.39,0,4.33-1.94,4.33-4.33v-4.22
			h-1.44V24.41z"/>
		<path class="st2" d="M33.15,28.47c0.12-0.1,0.19-0.24,0.18-0.4c-0.01-0.14-0.01-0.27,0-0.4c0-0.14-0.05-0.26-0.14-0.36h-6.37
			c-2.39,0-4.33,1.94-4.33,4.33v3.6h1.44v-3.6c0-1.59,1.3-2.89,2.89-2.89h6L33.15,28.47z"/>
	</g>
	<polygon class="st1" points="25.16,33.59 23.1,39.36 21.24,33.59 	"/>
	<path class="st1" d="M43.33,28.8c-0.26-0.2-0.4-0.51-0.39-0.84c0-0.12,0-0.24,0-0.36c-0.02-0.33,0.12-0.63,0.37-0.84l0.85-0.69
		l-0.49-1.16l-1.09,0.13c-0.33,0.04-0.64-0.08-0.87-0.32c-0.08-0.09-0.17-0.17-0.26-0.25c-0.24-0.22-0.36-0.53-0.33-0.86l0.11-1.09
		l-1.17-0.47l-0.68,0.86c-0.2,0.26-0.51,0.4-0.84,0.39c-0.12,0-0.24,0-0.36,0c-0.33,0.02-0.64-0.12-0.84-0.37l-0.69-0.85l-1.16,0.49
		l0.13,1.09c0.04,0.33-0.08,0.64-0.32,0.87c-0.09,0.08-0.17,0.17-0.25,0.26c-0.22,0.24-0.53,0.36-0.86,0.33l-1.09-0.11l-0.47,1.17
		l0.86,0.68c0.26,0.2,0.4,0.51,0.39,0.84c0,0.12,0,0.24,0,0.36c0.02,0.33-0.12,0.64-0.37,0.84l-0.85,0.69l0.49,1.16l1.09-0.13
		c0.33-0.04,0.64,0.08,0.87,0.32c0.08,0.09,0.17,0.17,0.26,0.25c0.24,0.22,0.36,0.53,0.33,0.86l-0.11,1.09l1.17,0.47l0.68-0.86
		c0.2-0.26,0.51-0.4,0.84-0.39c0.12,0,0.24,0,0.36,0c0.33-0.02,0.64,0.12,0.84,0.37l0.69,0.85l1.16-0.49L41.2,32
		c-0.04-0.33,0.08-0.64,0.32-0.87c0.09-0.08,0.17-0.17,0.25-0.26c0.22-0.24,0.53-0.36,0.86-0.33l1.09,0.11l0.47-1.17L43.33,28.8z
		 M40.77,28.78c-0.53,1.31-2.02,1.94-3.33,1.41c-1.31-0.53-1.94-2.02-1.41-3.33c0.53-1.31,2.02-1.94,3.33-1.41
		C40.67,25.98,41.3,27.47,40.77,28.78z"/>
	<polygon class="st1" points="19.6,21.63 21.66,15.86 23.51,21.63 	"/>
</g>
</svg>
