<?xml version="1.0" encoding="utf-8"?>
<!-- Generator: Adobe Illustrator 23.0.3, SVG Export Plug-In . SVG Version: 6.00 Build 0)  -->
<svg version="1.1" id="Layer_1" xmlns="http://www.w3.org/2000/svg" xmlns:xlink="http://www.w3.org/1999/xlink" x="0px" y="0px"
	 viewBox="0 0 48 48" style="enable-background:new 0 0 48 48;" xml:space="preserve">
<style type="text/css">
	.st0{fill:#3D3D3F;}
	.st1{fill:#FF5100;}
	.st2{fill:#FFFFFF;}
</style>
<g>
	<g>
		<path class="st0" d="M23.38,16.89v0.03c1.62,0,3.17,0.69,4.25,1.89l1.12-1.02c-1.36-1.5-3.3-2.37-5.33-2.38v-0.03
			c-4,0-7.26,3.26-7.26,7.26h1.52C17.68,19.48,20.23,16.92,23.38,16.89z"/>
		<path class="st0" d="M29.17,22.63c0,3.17-2.58,5.74-5.74,5.74c-1.62,0-3.17-0.69-4.25-1.89l-1.12,1.02
			c1.37,1.51,3.33,2.38,5.38,2.38c4,0,7.26-3.26,7.26-7.26H29.17z"/>
	</g>
	<polygon class="st1" points="27.81,23.94 29.98,17.87 31.93,23.94 	"/>
	<polygon class="st1" points="18.93,21.98 16.76,28.05 14.81,21.98 	"/>
	<path class="st1" d="M44.82,32.12c-0.27-0.22-0.42-0.54-0.41-0.88c0-0.13,0-0.25,0-0.38c-0.02-0.35,0.13-0.67,0.39-0.89l0.89-0.73
		l-0.52-1.23l-1.15,0.13c-0.35,0.04-0.68-0.08-0.92-0.34c-0.09-0.09-0.18-0.18-0.27-0.27c-0.26-0.23-0.38-0.56-0.35-0.91l0.11-1.15
		l-1.24-0.5l-0.72,0.9c-0.22,0.27-0.54,0.42-0.88,0.41c-0.13,0-0.25,0-0.38,0c-0.35,0.02-0.67-0.13-0.89-0.39l-0.73-0.89l-1.23,0.52
		l0.13,1.15c0.04,0.35-0.08,0.68-0.33,0.92c-0.09,0.09-0.18,0.18-0.27,0.27c-0.23,0.26-0.56,0.38-0.91,0.35L34,28.1l-0.5,1.24
		l0.9,0.72c0.27,0.22,0.42,0.54,0.41,0.88c0,0.13,0,0.25,0,0.38c0.02,0.35-0.13,0.67-0.39,0.89l-0.89,0.73l0.52,1.23l1.15-0.13
		c0.35-0.04,0.68,0.08,0.92,0.33c0.09,0.09,0.18,0.18,0.27,0.27c0.26,0.23,0.38,0.56,0.35,0.91l-0.11,1.15l1.24,0.5l0.72-0.9
		c0.22-0.27,0.54-0.42,0.88-0.41c0.13,0,0.25,0,0.38,0c0.35-0.02,0.67,0.13,0.89,0.39l0.73,0.89l1.23-0.52l-0.13-1.15
		c-0.04-0.35,0.08-0.68,0.33-0.92c0.09-0.09,0.18-0.18,0.27-0.27c0.23-0.26,0.56-0.38,0.91-0.35l1.15,0.11l0.5-1.24L44.82,32.12z
		 M42.11,32.1c-0.56,1.38-2.13,2.05-3.51,1.49c-1.38-0.56-2.05-2.13-1.49-3.51c0.56-1.38,2.13-2.05,3.51-1.49
		C42,29.14,42.67,30.72,42.11,32.1z"/>
	<g>
		<path class="st0" d="M34.07,31.77c0.13-0.11,0.2-0.26,0.19-0.43c-0.01-0.14-0.01-0.29,0-0.43c0-0.14-0.05-0.27-0.14-0.37H12.94
			c-3.87,0-7.02-3.08-7.02-6.87c0-3.34,2.44-6.18,5.79-6.76l0.52-0.09l0.1-0.51c0.71-3.64,3.97-6.28,7.76-6.28
			c2.24,0,4.38,0.94,5.88,2.57l0.06,0.06c0.38,0.34,0.73,0.71,1.03,1.1l0.34,0.44l0.52-0.19c0.46-0.17,0.94-0.25,1.44-0.25
			c0.99,0,1.95,0.35,2.69,0.99l0.04,0.03l0.05,0.03c0.92,0.58,1.57,1.51,1.8,2.55l0.14,0.65l0.67-0.06
			c0.21-0.02,0.38-0.03,0.55-0.03c3.55,0,6.45,2.83,6.45,6.31c0,0.09,0,0.19-0.01,0.28l1.08,0.43l0.39,0.16l-0.01,0.13
			c0.04-0.33,0.07-0.66,0.07-1c0-4.31-3.57-7.82-7.96-7.82c-0.01,0-0.03,0-0.04,0c-0.4-1.16-1.2-2.18-2.25-2.86
			c-1.02-0.85-2.3-1.31-3.64-1.31c-0.49,0-0.97,0.06-1.43,0.18c-0.27-0.31-0.56-0.6-0.86-0.88c-1.78-1.93-4.32-3.03-6.97-3.03
			c-4.34,0-8.11,2.92-9.14,7.01c-3.82,0.89-6.55,4.24-6.55,8.15c0,4.62,3.83,8.38,8.53,8.38h20.77L34.07,31.77z"/>
	</g>
</g>
</svg>
