<?xml version="1.0" encoding="utf-8"?>
<!-- Generator: Adobe Illustrator 23.0.3, SVG Export Plug-In . SVG Version: 6.00 Build 0)  -->
<svg version="1.1" id="Layer_1" xmlns="http://www.w3.org/2000/svg" xmlns:xlink="http://www.w3.org/1999/xlink" x="0px" y="0px"
	 viewBox="0 0 48 48" style="enable-background:new 0 0 48 48;" xml:space="preserve">
<style type="text/css">
	.st0{fill:#3D3D3F;}
	.st1{fill:#FF5100;}
	.st2{fill:#FFFFFF;}
</style>
<g>
	<path class="st1" d="M30.11,27.43c-0.26-0.21-0.41-0.52-0.4-0.86c0-0.12,0-0.25,0-0.37c-0.02-0.34,0.12-0.65,0.38-0.86l0.87-0.71
		l-0.51-1.19l-1.11,0.13c-0.34,0.04-0.66-0.08-0.89-0.33c-0.08-0.09-0.17-0.18-0.26-0.26c-0.25-0.23-0.37-0.55-0.34-0.88l0.11-1.12
		l-1.2-0.48l-0.7,0.88c-0.21,0.26-0.52,0.41-0.86,0.4c-0.12,0-0.25,0-0.37,0c-0.34,0.02-0.65-0.12-0.87-0.38l-0.71-0.87l-1.19,0.51
		l0.13,1.11c0.04,0.34-0.08,0.66-0.32,0.89c-0.09,0.08-0.18,0.17-0.26,0.26c-0.23,0.25-0.55,0.37-0.88,0.34l-1.11-0.11l-0.48,1.2
		l0.88,0.7c0.26,0.21,0.41,0.52,0.4,0.86c0,0.12,0,0.25,0,0.37c0.02,0.34-0.12,0.65-0.38,0.87l-0.87,0.71l0.51,1.19l1.11-0.13
		c0.34-0.04,0.66,0.08,0.89,0.32c0.08,0.09,0.17,0.18,0.26,0.26c0.25,0.23,0.37,0.55,0.34,0.88l-0.11,1.11l1.2,0.48l0.7-0.88
		c0.21-0.26,0.52-0.41,0.86-0.4c0.12,0,0.25,0,0.37,0c0.34-0.02,0.65,0.12,0.87,0.38l0.71,0.87l1.19-0.51l-0.13-1.11
		c-0.04-0.34,0.08-0.66,0.32-0.89c0.09-0.08,0.18-0.17,0.26-0.26c0.23-0.25,0.55-0.37,0.88-0.34l1.11,0.11l0.48-1.2L30.11,27.43z
		 M27.49,27.41c-0.54,1.34-2.07,1.99-3.41,1.45c-1.34-0.54-1.99-2.07-1.45-3.41c0.54-1.34,2.07-1.99,3.41-1.45
		C27.39,24.54,28.03,26.07,27.49,27.41z"/>
	<g>
		<path class="st0" d="M39.49,21.48c0,1.86,0,3.71,0,5.57c0,1.04,0,2.09,0,3.13c0,0.8-0.01,1.59-0.14,2.39
			c-0.56,3.41-3.18,6.27-6.49,7.19c-1.17,0.32-2.34,0.33-3.53,0.33c-0.72,0-1.44,0-2.16,0c-0.26,0.63-0.77,1.13-1.47,1.31
			c-0.41,0.11-0.87,0.07-1.29,0.07c-0.93,0-1.93,0.13-2.71-0.49c-1.35-1.07-0.93-3.28,0.71-3.8c0.38-0.12,0.8-0.1,1.2-0.1
			c0.43,0,0.86,0,1.29,0c0.49,0,0.96,0.05,1.38,0.32c0.46,0.28,0.77,0.7,0.94,1.19c0.06,0,0.12,0,0.18,0c0.98,0,1.95,0,2.93,0
			c1.4,0,2.74-0.35,3.95-1.07c1.52-0.91,2.62-2.3,3.2-3.9c-0.27,0.1-0.55,0.17-0.85,0.19c-0.06,0.02-0.12,0.03-0.19,0.03
			c-0.67,0-1.31-0.02-1.92-0.32c-0.78-0.38-1.38-1.14-1.58-1.98c-0.17-0.75-0.08-1.6-0.08-2.36c0-1.03,0-2.05,0-3.08
			c0-0.64-0.06-1.32,0.05-1.95c0.27-1.56,1.66-2.45,3.16-2.45c0.68,0,1.32,0.07,1.92,0.44c0,0,0.01,0,0.01,0.01
			c0-0.78-0.03-1.56-0.12-2.33c-0.44-3.63-2.52-7.01-5.55-9.05c-2.98-2.01-6.73-2.71-10.23-1.88c-2.99,0.72-5.71,2.53-7.49,5.05
			c-0.9,1.26-1.57,2.67-1.97,4.17c-0.33,1.23-0.44,2.45-0.44,3.71c0,0.13,0,0.25,0,0.38c0.45-0.23,0.97-0.36,1.51-0.36
			c0.62,0,1.22,0,1.8,0.26c0.74,0.33,1.32,0.97,1.58,1.74c0.23,0.66,0.14,1.44,0.14,2.13c0,1.02,0,2.05,0,3.07
			c0,0.68,0.02,1.35,0,2.02c-0.03,1.55-1.19,2.78-2.72,2.9c-0.05,0.01-0.1,0.02-0.16,0.02c-0.57,0-1.16,0.04-1.71-0.14
			c-0.79-0.27-1.42-0.85-1.76-1.6c-0.12-0.12-0.2-0.29-0.2-0.51c0-0.04,0-0.09,0-0.13c-0.12-0.67-0.05-1.43-0.05-2.07
			c0-1.06,0-2.11,0-3.17c0-0.61-0.05-1.23,0.01-1.83c0.01-0.08,0.02-0.17,0.03-0.25c-0.02-1.53-0.07-3.09,0.12-4.61
			c0.43-3.38,2.04-6.55,4.56-8.85c2.54-2.32,5.86-3.66,9.29-3.77c4.01-0.12,7.98,1.49,10.76,4.37
			C38.04,14.11,39.48,17.74,39.49,21.48z"/>
	</g>
	<path class="st1" d="M25.49,41.52H22.4c-0.92,0-1.66-0.74-1.66-1.66v-1.14c0-0.92,0.74-1.66,1.66-1.66h3.08
		c0.92,0,1.66,0.74,1.66,1.66v1.14C27.15,40.77,26.41,41.52,25.49,41.52z"/>
</g>
</svg>
