<?xml version="1.0" encoding="utf-8"?>
<!-- Generator: Adobe Illustrator 23.0.3, SVG Export Plug-In . SVG Version: 6.00 Build 0)  -->
<svg version="1.1" id="Layer_1" xmlns="http://www.w3.org/2000/svg" xmlns:xlink="http://www.w3.org/1999/xlink" x="0px" y="0px"
	 viewBox="0 0 48 48" style="enable-background:new 0 0 48 48;" xml:space="preserve">
<style type="text/css">
	.st0{fill:#3D3D3F;}
	.st1{fill:#FF5100;}
	.st2{fill:#FFFFFF;}
</style>
<g>
	<g>
		<g>
			<path class="st0" d="M36.44,25.67H34v-1.29h2.44c3.26,0,5.91-2.68,5.91-5.97c0-3.27-2.68-5.97-5.98-6.03
				c-0.25,0-0.58,0-0.82,0.05l-0.73,0.15l-0.04-0.74c-0.08-1.35-0.76-2.59-1.87-3.4c-1.09-0.79-2.46-1.05-3.76-0.72l-0.48,0.12
				l-0.24-0.43c-1.5-2.66-4.3-4.32-7.3-4.32c-4.61,0-8.35,3.77-8.35,8.41v0.98l-0.49,0.12c-2.62,0.64-4.51,3.08-4.51,5.81
				c0,3.29,2.65,5.97,5.91,5.97h2.44v1.29h-2.44c-3.97,0-7.2-3.26-7.2-7.26c0-3.14,2.08-5.97,5.01-6.92
				c0.01-5.35,4.33-9.69,9.64-9.69c3.31,0,6.41,1.74,8.18,4.57c1.53-0.26,3.1,0.1,4.37,1.03c1.24,0.9,2.06,2.23,2.32,3.71
				c0.14,0,0.27,0,0.39,0c4.01,0.07,7.26,3.35,7.26,7.32C43.64,22.42,40.41,25.67,36.44,25.67z"/>
		</g>
	</g>
	<g>
		<path class="st1" d="M20.29,18.06c0.42,0,0.77-0.36,0.77-0.77c0-0.42-0.36-0.77-0.77-0.77s-0.77,0.36-0.77,0.77
			S19.88,18.06,20.29,18.06z"/>
		<circle class="st1" cx="20.29" cy="23.48" r="0.77"/>
		<circle class="st1" cx="20.29" cy="29.85" r="0.77"/>
		<g>
			<path class="st0" d="M29.1,39.14v0.55l13.25-0.04c0.18,0,0.3-0.12,0.3-0.3s-0.12-0.3-0.3-0.3L29.1,39.14z M20.8,39.69v-0.55
				L7.78,39.05c-0.18,0-0.3,0.12-0.3,0.3s0.12,0.3,0.3,0.3L20.8,39.69z M24.86,35.27h0.55l0.01-2.85h7.03
				c0.48,0,0.89-0.42,0.89-0.89v-2.98c0-0.48-0.42-0.89-0.89-0.89h-1.43v-1.61h1.49c0.48,0,0.89-0.42,0.89-0.89v-2.98
				c0-0.48-0.42-0.89-0.89-0.89h-1.49v-1.55h1.49c0.48,0,0.89-0.42,0.89-0.89v-2.98c0-0.48-0.42-0.89-0.89-0.89H17.67
				c-0.48,0-0.89,0.42-0.89,0.89v2.98c0,0.48,0.42,0.89,0.89,0.89h1.43v1.55h-1.49c-0.48,0-0.89,0.42-0.89,0.89v2.98
				c0,0.48,0.42,0.89,0.89,0.89h1.49v1.61h-1.49c-0.48,0-0.89,0.42-0.89,0.89v2.98c0,0.48,0.42,0.89,0.89,0.89h7.15L24.86,35.27z
				 M31.2,23.6c0,0.18-0.12,0.3-0.3,0.3h-7.21c-0.18,0-0.3-0.12-0.3-0.3c0-0.18,0.12-0.3,0.3-0.3h7.21
				C31.08,23.3,31.2,23.48,31.2,23.6z M30.42,26.04v1.61H19.7v-1.61H30.42z M19.7,21.21v-1.55h10.73v1.55H19.7z M23.69,16.92h7.21
				c0.18,0,0.3,0.12,0.3,0.3s-0.12,0.3-0.3,0.3h-7.21c-0.18,0-0.3-0.12-0.3-0.3S23.51,16.92,23.69,16.92z M18.92,17.28
				c0-0.77,0.6-1.37,1.37-1.37c0.77,0,1.37,0.6,1.37,1.37c0,0.77-0.6,1.37-1.37,1.37C19.58,18.65,18.92,18,18.92,17.28z
				 M18.92,23.48c0-0.77,0.6-1.37,1.37-1.37c0.77,0,1.37,0.6,1.37,1.37s-0.6,1.37-1.37,1.37C19.58,24.85,18.92,24.25,18.92,23.48z
				 M20.29,31.22c-0.77,0-1.37-0.6-1.37-1.37s0.6-1.37,1.37-1.37c0.77,0,1.37,0.6,1.37,1.37C21.72,30.63,21.07,31.22,20.29,31.22z
				 M23.69,30.27c-0.18,0-0.3-0.12-0.3-0.3c0-0.18,0.12-0.3,0.3-0.3h7.21c0.18,0,0.3,0.12,0.3,0.3c0,0.18-0.12,0.3-0.3,0.3H23.69z"
				/>
		</g>
	</g>
	<path class="st1" d="M30.19,40.26c-0.27-0.22-0.42-0.54-0.41-0.88c0-0.13,0-0.25,0-0.38c-0.02-0.35,0.13-0.67,0.39-0.89l0.89-0.73
		l-0.52-1.23l-1.15,0.13c-0.35,0.04-0.68-0.08-0.92-0.34c-0.09-0.09-0.18-0.18-0.27-0.27c-0.26-0.23-0.38-0.56-0.35-0.91l0.11-1.15
		l-1.24-0.5l-0.72,0.9c-0.22,0.27-0.54,0.42-0.88,0.41c-0.13,0-0.25,0-0.38,0c-0.35,0.02-0.67-0.13-0.89-0.39l-0.73-0.89l-1.23,0.52
		l0.13,1.15c0.04,0.35-0.08,0.68-0.33,0.92c-0.09,0.09-0.18,0.18-0.27,0.27c-0.23,0.26-0.56,0.38-0.91,0.35l-1.15-0.11l-0.5,1.24
		l0.9,0.72c0.27,0.22,0.42,0.54,0.41,0.88c0,0.13,0,0.25,0,0.38c0.02,0.35-0.13,0.67-0.39,0.89l-0.89,0.73l0.52,1.23l1.15-0.13
		c0.35-0.04,0.68,0.08,0.92,0.33c0.09,0.09,0.18,0.18,0.27,0.27c0.26,0.23,0.38,0.56,0.35,0.91L22,44.84l1.24,0.5l0.72-0.9
		c0.22-0.27,0.54-0.42,0.88-0.41c0.13,0,0.25,0,0.38,0c0.35-0.02,0.67,0.13,0.89,0.39l0.73,0.89l1.23-0.52l-0.13-1.15
		c-0.04-0.35,0.08-0.68,0.33-0.92c0.09-0.09,0.18-0.18,0.27-0.27c0.23-0.26,0.56-0.38,0.91-0.35l1.15,0.11l0.5-1.24L30.19,40.26z
		 M27.49,40.24c-0.56,1.38-2.13,2.05-3.51,1.49c-1.38-0.56-2.05-2.13-1.49-3.51c0.56-1.38,2.13-2.05,3.51-1.49
		C27.38,37.28,28.05,38.86,27.49,40.24z"/>
</g>
</svg>
