<?xml version="1.0" encoding="utf-8"?>
<!-- Generator: Adobe Illustrator 23.0.3, SVG Export Plug-In . SVG Version: 6.00 Build 0)  -->
<svg version="1.1" id="Layer_1" xmlns="http://www.w3.org/2000/svg" xmlns:xlink="http://www.w3.org/1999/xlink" x="0px" y="0px"
	 viewBox="0 0 48 48" style="enable-background:new 0 0 48 48;" xml:space="preserve">
<style type="text/css">
	.st0{fill:#3D3D3F;}
	.st1{fill:#FF5100;}
	.st2{fill:#FFFFFF;}
</style>
<g>
	<g>
		<g>
			<path class="st2" d="M35.04,25.67H32.6v-1.29h2.44c3.26,0,5.91-2.68,5.91-5.97c0-3.27-2.68-5.97-5.98-6.03
				c-0.25,0-0.58,0-0.82,0.05l-0.73,0.15l-0.04-0.74c-0.08-1.35-0.76-2.59-1.87-3.4c-1.09-0.79-2.46-1.05-3.76-0.72l-0.48,0.12
				l-0.24-0.43c-1.5-2.66-4.3-4.32-7.3-4.32c-4.61,0-8.35,3.77-8.35,8.41v0.98l-0.49,0.12c-2.62,0.64-4.51,3.08-4.51,5.81
				c0,3.29,2.65,5.97,5.91,5.97h2.44v1.29h-2.44c-3.97,0-7.2-3.26-7.2-7.26c0-3.14,2.08-5.97,5.01-6.92
				c0.01-5.35,4.33-9.69,9.64-9.69c3.31,0,6.41,1.74,8.18,4.57c1.53-0.26,3.1,0.1,4.37,1.03c1.24,0.9,2.06,2.23,2.32,3.71
				c0.14,0,0.27,0,0.39,0c4.01,0.07,7.26,3.35,7.26,7.32C42.24,22.42,39.01,25.67,35.04,25.67z"/>
		</g>
	</g>
	<g>
		<path class="st1" d="M18.89,18.06c0.42,0,0.77-0.36,0.77-0.77c0-0.42-0.36-0.77-0.77-0.77c-0.42,0-0.77,0.36-0.77,0.77
			S18.47,18.06,18.89,18.06z"/>
		<circle class="st1" cx="18.89" cy="23.48" r="0.77"/>
		<circle class="st1" cx="18.89" cy="29.85" r="0.77"/>
		<g>
			<path class="st2" d="M27.69,39.14v0.55l13.25-0.04c0.18,0,0.3-0.12,0.3-0.3s-0.12-0.3-0.3-0.3L27.69,39.14z M19.39,39.69v-0.55
				L6.38,39.05c-0.18,0-0.3,0.12-0.3,0.3s0.12,0.3,0.3,0.3L19.39,39.69z M23.45,35.27H24l0.01-2.85h7.03c0.48,0,0.89-0.42,0.89-0.89
				v-2.98c0-0.48-0.42-0.89-0.89-0.89h-1.43v-1.61h1.49c0.48,0,0.89-0.42,0.89-0.89v-2.98c0-0.48-0.42-0.89-0.89-0.89h-1.49v-1.55
				h1.49c0.48,0,0.89-0.42,0.89-0.89v-2.98c0-0.48-0.42-0.89-0.89-0.89H16.27c-0.48,0-0.89,0.42-0.89,0.89v2.98
				c0,0.48,0.42,0.89,0.89,0.89h1.43v1.55h-1.49c-0.48,0-0.89,0.42-0.89,0.89v2.98c0,0.48,0.42,0.89,0.89,0.89h1.49v1.61h-1.49
				c-0.48,0-0.89,0.42-0.89,0.89v2.98c0,0.48,0.42,0.89,0.89,0.89h7.15L23.45,35.27z M29.79,23.6c0,0.18-0.12,0.3-0.3,0.3h-7.21
				c-0.18,0-0.3-0.12-0.3-0.3c0-0.18,0.12-0.3,0.3-0.3h7.21C29.68,23.3,29.79,23.48,29.79,23.6z M29.02,26.04v1.61H18.29v-1.61
				H29.02z M18.29,21.21v-1.55h10.73v1.55H18.29z M22.29,16.92h7.21c0.18,0,0.3,0.12,0.3,0.3s-0.12,0.3-0.3,0.3h-7.21
				c-0.18,0-0.3-0.12-0.3-0.3S22.11,16.92,22.29,16.92z M17.52,17.28c0-0.77,0.6-1.37,1.37-1.37s1.37,0.6,1.37,1.37
				c0,0.77-0.6,1.37-1.37,1.37C18.17,18.65,17.52,18,17.52,17.28z M17.52,23.48c0-0.77,0.6-1.37,1.37-1.37s1.37,0.6,1.37,1.37
				s-0.6,1.37-1.37,1.37C18.17,24.85,17.52,24.25,17.52,23.48z M18.89,31.22c-0.77,0-1.37-0.6-1.37-1.37s0.6-1.37,1.37-1.37
				s1.37,0.6,1.37,1.37C20.32,30.63,19.66,31.22,18.89,31.22z M22.29,30.27c-0.18,0-0.3-0.12-0.3-0.3c0-0.18,0.12-0.3,0.3-0.3h7.21
				c0.18,0,0.3,0.12,0.3,0.3c0,0.18-0.12,0.3-0.3,0.3H22.29z"/>
		</g>
	</g>
	<path class="st1" d="M28.79,40.26c-0.27-0.22-0.42-0.54-0.41-0.88c0-0.13,0-0.25,0-0.38c-0.02-0.35,0.13-0.67,0.39-0.89l0.89-0.73
		l-0.52-1.23l-1.15,0.13c-0.35,0.04-0.68-0.08-0.92-0.34c-0.09-0.09-0.18-0.18-0.27-0.27c-0.26-0.23-0.38-0.56-0.35-0.91l0.11-1.15
		l-1.24-0.5l-0.72,0.9c-0.22,0.27-0.54,0.42-0.88,0.41c-0.13,0-0.25,0-0.38,0c-0.35,0.02-0.67-0.13-0.89-0.39l-0.73-0.89l-1.23,0.52
		l0.13,1.15c0.04,0.35-0.08,0.68-0.33,0.92c-0.09,0.09-0.18,0.18-0.27,0.27c-0.23,0.26-0.56,0.38-0.91,0.35l-1.15-0.11l-0.5,1.24
		l0.9,0.72c0.27,0.22,0.42,0.54,0.41,0.88c0,0.13,0,0.25,0,0.38c0.02,0.35-0.13,0.67-0.39,0.89l-0.89,0.73l0.52,1.23l1.15-0.13
		c0.35-0.04,0.68,0.08,0.92,0.33c0.09,0.09,0.18,0.18,0.27,0.27c0.26,0.23,0.38,0.56,0.35,0.91l-0.11,1.15l1.24,0.5l0.72-0.9
		c0.22-0.27,0.54-0.42,0.88-0.41c0.13,0,0.25,0,0.38,0c0.35-0.02,0.67,0.13,0.89,0.39l0.73,0.89l1.23-0.52l-0.13-1.15
		c-0.04-0.35,0.08-0.68,0.33-0.92c0.09-0.09,0.18-0.18,0.27-0.27c0.23-0.26,0.56-0.38,0.91-0.35l1.15,0.11l0.5-1.24L28.79,40.26z
		 M26.08,40.24c-0.56,1.38-2.13,2.05-3.51,1.49c-1.38-0.56-2.05-2.13-1.49-3.51c0.56-1.38,2.13-2.05,3.51-1.49
		C25.97,37.28,26.64,38.86,26.08,40.24z"/>
</g>
</svg>
