<?xml version="1.0" encoding="utf-8"?>
<!-- Generator: Adobe Illustrator 23.0.3, SVG Export Plug-In . SVG Version: 6.00 Build 0)  -->
<svg version="1.1" id="Layer_1" xmlns="http://www.w3.org/2000/svg" xmlns:xlink="http://www.w3.org/1999/xlink" x="0px" y="0px"
	 viewBox="0 0 48 48" style="enable-background:new 0 0 48 48;" xml:space="preserve">
<style type="text/css">
	.st0{fill:#3D3D3F;}
	.st1{fill:#FF5100;}
	.st2{fill:#FFFFFF;}
</style>
<g>
	<path class="st1" d="M44.58,33.87c-0.32-0.25-0.49-0.62-0.48-1.03c0-0.15,0-0.3,0-0.44c-0.02-0.4,0.15-0.78,0.46-1.04l1.04-0.85
		l-0.61-1.43l-1.33,0.15c-0.4,0.05-0.79-0.1-1.06-0.39c-0.1-0.11-0.21-0.21-0.32-0.31c-0.3-0.27-0.45-0.65-0.41-1.06L42,26.14
		l-1.44-0.58l-0.83,1.05c-0.25,0.32-0.62,0.49-1.03,0.48c-0.15,0-0.3,0-0.44,0c-0.4,0.02-0.78-0.15-1.04-0.46l-0.85-1.04l-1.43,0.61
		l0.15,1.33c0.05,0.4-0.09,0.79-0.39,1.06c-0.11,0.1-0.21,0.21-0.31,0.32c-0.27,0.3-0.65,0.45-1.06,0.41l-1.34-0.13l-0.58,1.44
		l1.05,0.83c0.32,0.25,0.49,0.62,0.48,1.03c0,0.15,0,0.3,0,0.44c0.02,0.4-0.15,0.78-0.46,1.04l-1.04,0.85l0.61,1.43l1.33-0.15
		c0.4-0.05,0.79,0.09,1.06,0.39c0.1,0.11,0.21,0.21,0.32,0.31c0.3,0.27,0.45,0.65,0.41,1.06l-0.13,1.34l1.44,0.58l0.83-1.05
		c0.25-0.32,0.62-0.49,1.03-0.48c0.15,0,0.3,0,0.44,0c0.4-0.02,0.78,0.15,1.04,0.46l0.85,1.04l1.43-0.61l-0.15-1.33
		c-0.05-0.4,0.09-0.79,0.39-1.06c0.11-0.1,0.21-0.21,0.31-0.32c0.27-0.3,0.65-0.45,1.06-0.41l1.34,0.13l0.58-1.44L44.58,33.87z
		 M41.44,33.84c-0.65,1.61-2.48,2.38-4.09,1.74c-1.61-0.65-2.38-2.48-1.74-4.09c0.65-1.61,2.48-2.38,4.09-1.74
		C41.32,30.4,42.09,32.23,41.44,33.84z"/>
	<g>
		<path class="st0" d="M32.22,33.07c0.12-0.1,0.18-0.24,0.17-0.39c-0.01-0.13-0.01-0.26,0-0.38c0-0.15-0.06-0.29-0.18-0.39
			l-0.04-0.03H7.24V15.99h8.61c0.18,0,0.35-0.07,0.47-0.19l2.45-2.46h19v12.96c0.08,0.07,0.18,0.1,0.29,0.1c0.01,0,0.02,0,0.02,0
			c0.08,0,0.16-0.01,0.24-0.01c0.05,0,0.1,0,0.15,0l0.24,0l0.38-0.48V9.57c0-0.12-0.09-0.21-0.21-0.21H6.57
			c-0.37,0-0.66,0.3-0.66,0.66v22.51c0,0.37,0.3,0.66,0.66,0.66h25.49L32.22,33.07z M14.52,12.01c0.37,0,0.66,0.3,0.66,0.66
			c0,0.37-0.3,0.66-0.66,0.66c-0.37,0-0.66-0.3-0.66-0.66C13.86,12.31,14.15,12.01,14.52,12.01z M11.87,12.01
			c0.37,0,0.66,0.3,0.66,0.66c0,0.37-0.3,0.66-0.66,0.66c-0.37,0-0.66-0.3-0.66-0.66C11.21,12.31,11.5,12.01,11.87,12.01z
			 M9.22,12.01c0.37,0,0.66,0.3,0.66,0.66c0,0.37-0.3,0.66-0.66,0.66c-0.37,0-0.66-0.3-0.66-0.66C8.56,12.31,8.86,12.01,9.22,12.01z
			"/>
	</g>
</g>
</svg>
